<svg width="40" height="40" viewBox="0 0 40 40" fill="none" xmlns="http://www.w3.org/2000/svg">
<circle cx="19.8474" cy="19.8474" r="19.8474" fill="black"/>
<path d="M20.2508 8C14.2117 8 11 12.0396 11 16.4443C11 18.487 12.0935 21.0344 13.844 21.8423C14.1098 21.9674 14.2544 21.9142 14.3136 21.6569C14.3659 21.4614 14.5959 20.5198 14.7075 20.0755C14.7419 19.9332 14.724 19.8096 14.6138 19.6759C14.0327 18.9744 13.5713 17.6964 13.5713 16.4974C13.5713 13.4254 15.9112 10.4424 19.8928 10.4424C23.3358 10.4424 25.7446 12.777 25.7446 16.1165C25.7446 19.8901 23.8316 22.5007 21.3457 22.5007C19.9699 22.5007 18.9452 21.3737 19.2703 19.9792C19.6628 18.3188 20.4326 16.5334 20.4326 15.3359C20.4326 14.262 19.8514 13.3736 18.6643 13.3736C17.2636 13.3736 16.1274 14.8212 16.1274 16.7648C16.1274 17.9997 16.5461 18.8335 16.5461 18.8335C16.5461 18.8335 15.1606 24.6758 14.9031 25.7669C14.4679 27.6141 14.9623 30.6057 15.005 30.863C15.0311 31.0054 15.184 31.0499 15.2694 30.9335C15.4058 30.7466 17.0805 28.2524 17.5501 26.4497C17.7209 25.7927 18.4219 23.1289 18.4219 23.1289C18.8833 23.9987 20.215 24.7275 21.6336 24.7275C25.8534 24.7275 28.9026 20.8561 28.9026 16.0518C28.8874 11.4458 25.1111 8 20.2508 8Z" fill="white"/>
</svg>
