<svg width="40" height="40" viewBox="0 0 40 40" fill="none" xmlns="http://www.w3.org/2000/svg">
<circle cx="19.8474" cy="19.8474" r="19.8474" fill="black"/>
<path d="M29.8744 23.0383C31.8701 24.9724 32.2857 25.9181 32.3531 26.0344C33.1768 27.4685 31.4395 27.5809 31.4395 27.5809L28.1108 27.6313C28.1108 27.6313 27.3919 27.7786 26.4521 27.1003C25.2053 26.2088 23.5016 23.8833 22.588 24.1856C21.6594 24.4918 21.9552 26.9298 21.9552 26.9298C21.9552 26.9298 21.9627 27.2282 21.753 27.4685C21.5209 27.7205 21.0716 27.6236 21.0716 27.6236H20.113C20.113 27.6236 16.5597 27.6391 13.6617 24.484C10.5052 21.0461 7.86552 14.6159 7.86552 14.6159C7.86552 14.6159 7.70452 14.2089 7.87675 13.9918C8.0752 13.7476 8.61063 13.7515 8.61063 13.7515H12.1714C12.1714 13.7515 12.5047 13.798 12.7443 13.9841C12.9465 14.1352 13.0551 14.4221 13.0551 14.4221C13.0551 14.4221 13.4857 15.6197 14.2495 16.9996C15.736 19.6895 16.4287 20.2786 16.9342 19.9879C17.668 19.5655 17.4471 16.1856 17.4471 16.1856C17.4471 16.1856 17.4621 14.9569 17.0764 14.4104C16.7769 13.9841 16.219 13.86 15.9719 13.8252C15.7697 13.8019 16.0992 13.3135 16.526 13.0965C17.1663 12.7709 18.3008 12.7476 19.6375 12.7632C20.6784 12.7748 21.0716 12.7593 21.0716 12.7593C22.2997 13.0694 21.8841 14.2709 21.8841 17.1391C21.8841 18.0616 21.7231 19.3562 22.3596 19.7825C22.6329 19.9724 23.6139 19.9996 25.2802 17.0345C26.0739 15.6275 26.6992 14.3058 26.6992 14.3058C26.6992 14.3058 26.834 14.0073 27.0325 13.8833C27.2422 13.7515 27.5192 13.7515 27.5192 13.7515L31.2673 13.7709C31.2673 13.7709 32.3943 13.6236 32.574 14.1585C32.765 14.7166 32.1135 15.6934 30.5858 17.829C28.0696 21.3368 27.7888 21.0112 29.8744 23.0383Z" fill="white"/>
</svg>
